<svg xmlns="http://www.w3.org/2000/svg" width="25.488" height="20.834" viewBox="0 0 25.488 20.834">
  <g id="Group_1718" data-name="Group 1718" transform="translate(-657.012 -538.251)">
    <path id="Subtraction_2" data-name="Subtraction 2" d="M18700.5-9506.334a13.509,13.509,0,0,1-4.58-.8l2.232-1.745a6.211,6.211,0,0,0,2.348.456h.01a6.194,6.194,0,0,0,4.414-1.831,6.194,6.194,0,0,0,1.822-4.415,6.583,6.583,0,0,0-.061-.878l3.871-3.026a14.518,14.518,0,0,1,2.291,3.27,1.421,1.421,0,0,1,0,1.269A13.9,13.9,0,0,1,18700.5-9506.334Zm-7.543-2.289h0a14.36,14.36,0,0,1-4.809-5.408,1.409,1.409,0,0,1,0-1.269,13.9,13.9,0,0,1,12.352-7.7,13.563,13.563,0,0,1,7.748,2.432l-2.754,2.151a6.2,6.2,0,0,0-4.994-2.5,6.259,6.259,0,0,0-6.252,6.252,6.247,6.247,0,0,0,1.4,3.938l-2.691,2.1Zm7.549-1.9c-.072,0-.146,0-.24-.007l4.328-3.383a4.148,4.148,0,0,1-1.557,2.531A4.175,4.175,0,0,1,18700.508-9510.52Zm-3.2-1.5h0a4.168,4.168,0,0,1-.812-3.743,2.067,2.067,0,0,0,1.23.4,2.062,2.062,0,0,0,1.471-.609,2.061,2.061,0,0,0,.205-2.7,4.188,4.188,0,0,1,1.1-.164h.012a4.18,4.18,0,0,1,3.346,1.691l-6.551,5.118Z" transform="translate(-18030.5 10063.334)" fill="rgba(183,182,182,0.91)"/>
    <rect id="Rectangle_799" data-name="Rectangle 799" width="30" height="3" rx="1.5" transform="matrix(0.788, -0.616, 0.616, 0.788, 657.012, 556.721)" fill="#bdbcbc"/>
  </g>
</svg>
