<svg xmlns="http://www.w3.org/2000/svg" width="14.127" height="14.127" viewBox="0 0 14.127 14.127">
  <path id="Path_384" data-name="Path 384" d="M286.055,214.816l-5.157-5.157a.875.875,0,0,0-1.238,1.238l5.157,5.157a.584.584,0,0,1,0,.825l-5.157,5.157a.875.875,0,0,0,1.238,1.238l5.157-5.157a.584.584,0,0,1,.825,0l5.157,5.157a.875.875,0,0,0,1.238-1.238l-5.157-5.157a.584.584,0,0,1,0-.825l5.157-5.157a.875.875,0,0,0-1.238-1.238l-5.157,5.157A.584.584,0,0,1,286.055,214.816Z" transform="translate(-279.404 -209.403)"/>
</svg>
