<svg xmlns="http://www.w3.org/2000/svg" width="24.837" height="26.524" viewBox="0 0 24.837 26.524">
  <g id="noun_Delete_1152877" transform="translate(10.17 -26.696)">
    <g id="Group_1387" data-name="Group 1387" transform="translate(-30 8.916)">
      <path id="Path_304" data-name="Path 304" d="M22.728,43.481a.823.823,0,0,0,.823.823H40.946a.823.823,0,0,0,.823-.823l.037-20.148h2.861V21.686H36.607V18.6a.823.823,0,0,0-.823-.823H28.713a.823.823,0,0,0-.823.823v3.083H19.83v1.646h2.861Zm17.395-.823H24.374l-.037-19.321H40.16ZM29.536,19.426h5.425v2.26H29.536Z" fill="#6b6b6b"/>
      <rect id="Rectangle_687" data-name="Rectangle 687" width="1.646" height="9.838" transform="translate(28.955 27.967)" fill="#6b6b6b"/>
      <rect id="Rectangle_688" data-name="Rectangle 688" width="1.646" height="9.838" transform="translate(33.895 27.967)" fill="#6b6b6b"/>
    </g>
  </g>
</svg>
