<svg xmlns="http://www.w3.org/2000/svg" width="16" height="16" viewBox="0 0 16 16">
  <g id="Group_1272" data-name="Group 1272" transform="translate(-2.6 -2.9)">
    <path id="Path_281" data-name="Path 281" d="M18.111,4.919H13.222V3.392a.491.491,0,0,0-.489-.492H8.467a.491.491,0,0,0-.489.492V4.919H3.089a.492.492,0,0,0,0,.984h1.1l.877,11.47A1.654,1.654,0,0,0,6.7,18.9H14.5a1.643,1.643,0,0,0,1.635-1.527L17.015,5.9h1.1a.492.492,0,0,0,0-.984ZM8.973,3.884H12.21V4.919H8.973Zm6.171,13.421a.675.675,0,0,1-.658.611H6.7a.675.675,0,0,1-.658-.611L5.163,5.92H16Z" transform="translate(0)" fill="#009dcb"/>
    <path id="Path_282" data-name="Path 282" d="M37.023,42.894a.523.523,0,0,0,.523-.523V36.023a.523.523,0,0,0-1.046,0v6.348A.523.523,0,0,0,37.023,42.894Z" transform="translate(-28.21 -27.336)" fill="#009dcb"/>
    <path id="Path_283" data-name="Path 283" d="M58.219,42.894a.523.523,0,0,0,.523-.523V36.023a.523.523,0,1,0-1.046,0v6.348A.5.5,0,0,0,58.219,42.894Z" transform="translate(-45.848 -27.336)" fill="#009dcb"/>
  </g>
</svg>
