<svg xmlns="http://www.w3.org/2000/svg" width="22.192" height="18.66" viewBox="0 0 22.192 18.66">
  <path id="Path_232" data-name="Path 232" d="M20.312,3.719H5.006A2.946,2.946,0,0,0,2.063,6.662V18.436a2.946,2.946,0,0,0,2.943,2.943H20.312a2.946,2.946,0,0,0,2.943-2.943V6.662A2.946,2.946,0,0,0,20.312,3.719ZM5.006,4.9H20.312a1.766,1.766,0,0,1,1.734,1.448l-9.387,5.521L3.272,6.344A1.766,1.766,0,0,1,5.006,4.9ZM20.312,20.2H5.006A1.768,1.768,0,0,1,3.24,18.436V7.691l9.419,5.542,9.419-5.541V18.436A1.768,1.768,0,0,1,20.312,20.2Z" transform="translate(-1.563 -3.219)" fill="#293889" stroke="#293889" stroke-width="1"/>
</svg>
