<svg id="Group_602" data-name="Group 602" xmlns="http://www.w3.org/2000/svg" width="18" height="18" viewBox="0 0 18 18">
  <g id="Group_601" data-name="Group 601">
    <g id="Group_597" data-name="Group 597" transform="translate(0 0)">
      <path id="Path_186" data-name="Path 186" d="M17.152,18.808h-3.9A2.261,2.261,0,0,1,11,16.552v-3.9A2.261,2.261,0,0,1,13.256,10.4h3.9a2.261,2.261,0,0,1,2.256,2.256v3.9A2.276,2.276,0,0,1,17.152,18.808Zm-3.9-7.519a1.347,1.347,0,0,0-1.344,1.344v3.9a1.347,1.347,0,0,0,1.344,1.344h3.9A1.347,1.347,0,0,0,18.5,16.529V12.656a1.347,1.347,0,0,0-1.344-1.344h-3.9Z" transform="translate(-11 -10.4)" fill="#545454"/>
    </g>
    <g id="Group_598" data-name="Group 598" transform="translate(0 9.592)">
      <path id="Path_187" data-name="Path 187" d="M17.152,60.908h-3.9A2.261,2.261,0,0,1,11,58.652v-3.9A2.261,2.261,0,0,1,13.256,52.5h3.9a2.261,2.261,0,0,1,2.256,2.256v3.9A2.261,2.261,0,0,1,17.152,60.908Zm-3.9-7.5a1.347,1.347,0,0,0-1.344,1.344v3.9A1.347,1.347,0,0,0,13.256,60h3.9A1.347,1.347,0,0,0,18.5,58.652v-3.9a1.347,1.347,0,0,0-1.344-1.344Z" transform="translate(-11 -52.5)" fill="#545454"/>
    </g>
    <g id="Group_599" data-name="Group 599" transform="translate(9.592 9.592)">
      <path id="Path_188" data-name="Path 188" d="M59.252,60.908h-3.9A2.261,2.261,0,0,1,53.1,58.652v-3.9A2.261,2.261,0,0,1,55.356,52.5h3.9a2.261,2.261,0,0,1,2.256,2.256v3.9A2.246,2.246,0,0,1,59.252,60.908Zm-3.9-7.5a1.347,1.347,0,0,0-1.344,1.344v3.9A1.347,1.347,0,0,0,55.356,60h3.9A1.347,1.347,0,0,0,60.6,58.652v-3.9a1.347,1.347,0,0,0-1.344-1.344Z" transform="translate(-53.1 -52.5)" fill="#545454"/>
    </g>
    <g id="Group_600" data-name="Group 600" transform="translate(9.592 0)">
      <path id="Path_189" data-name="Path 189" d="M54.9,10.4h4.808a1.789,1.789,0,0,1,1.8,1.8v4.808a1.789,1.789,0,0,1-1.8,1.8H54.9a1.789,1.789,0,0,1-1.8-1.8V12.2A1.8,1.8,0,0,1,54.9,10.4Z" transform="translate(-53.1 -10.4)" fill="#545454"/>
    </g>
  </g>
</svg>
