<svg id="noun_application_1079820" xmlns="http://www.w3.org/2000/svg" width="18" height="23.377" viewBox="0 0 18 23.377">
  <path id="Path_179" data-name="Path 179" d="M33.261,10.619h0a.528.528,0,0,0-.045-.129l-.011-.021a.529.529,0,0,0-.085-.114L29.434,6.679a.529.529,0,0,0-.114-.085l-.029-.016a.53.53,0,0,0-.13-.045h0a.53.53,0,0,0-.1,0H15.809a.529.529,0,0,0-.529.528V29.38a.529.529,0,0,0,.529.528H32.751a.529.529,0,0,0,.529-.528V10.73A.528.528,0,0,0,33.261,10.619ZM29.587,8.328,31.464,10.2H29.587ZM16.339,28.852V7.58h12.19v3.15a.529.529,0,0,0,.529.528h3.155V28.852Z" transform="translate(-15.28 -6.531)" fill="#545454"/>
  <path id="Path_180" data-name="Path 180" d="M39.7,46.13H27.735c-.329,0-.595.183-.595.408s.266.408.595.408H39.7c.329,0,.595-.183.595-.408S40.031,46.13,39.7,46.13Z" transform="translate(-24.723 -35.553)" fill="#545454"/>
  <path id="Path_181" data-name="Path 181" d="M47.668,35.565h4.076a.408.408,0,1,0,0-.815H47.668a.408.408,0,1,0,0,.815Z" transform="translate(-37.733 -27.213)" fill="#545454"/>
  <path id="Path_182" data-name="Path 182" d="M39.7,55.38H27.735c-.329,0-.595.183-.595.408s.266.408.595.408H39.7c.329,0,.595-.183.595-.408S40.031,55.38,39.7,55.38Z" transform="translate(-24.723 -42.332)" fill="#545454"/>
  <path id="Path_183" data-name="Path 183" d="M39.7,64.63H27.735c-.329,0-.595.183-.595.408s.266.408.595.408H39.7c.329,0,.595-.183.595-.408S40.031,64.63,39.7,64.63Z" transform="translate(-24.723 -49.112)" fill="#545454"/>
  <path id="Path_184" data-name="Path 184" d="M39.7,73.88H27.735c-.329,0-.595.183-.595.408s.266.408.595.408H39.7c.329,0,.595-.183.595-.408S40.031,73.88,39.7,73.88Z" transform="translate(-24.723 -55.891)" fill="#545454"/>
  <path id="Path_185" data-name="Path 185" d="M27.548,23.121h2.405a.408.408,0,0,0,.408-.408V19.528a.408.408,0,0,0-.408-.408H27.548a.408.408,0,0,0-.408.408v3.186A.408.408,0,0,0,27.548,23.121Zm.408-3.186h1.59v2.37h-1.59Z" transform="translate(-23.782 -16.554)" fill="#545454"/>
</svg>
