<svg xmlns="http://www.w3.org/2000/svg" width="25" height="16.667" viewBox="0 0 25 16.667">
  <path id="Icon_awesome-eye" data-name="Icon awesome-eye" d="M24.849,10.7A13.921,13.921,0,0,0,12.5,3,13.923,13.923,0,0,0,.151,10.7a1.4,1.4,0,0,0,0,1.267,13.921,13.921,0,0,0,12.349,7.7,13.923,13.923,0,0,0,12.349-7.7,1.4,1.4,0,0,0,0-1.267ZM12.5,17.583a6.25,6.25,0,1,1,6.25-6.25,6.25,6.25,0,0,1-6.25,6.25Zm0-10.417a4.137,4.137,0,0,0-1.1.164,2.077,2.077,0,0,1-2.9,2.9,4.157,4.157,0,1,0,4-3.068Z" transform="translate(0 -3)" fill="rgba(183,182,182,0.91)"/>
</svg>