<svg xmlns="http://www.w3.org/2000/svg" width="21.162" height="32.786" viewBox="0 0 21.162 32.786">
  <g id="Group_758" data-name="Group 758" transform="translate(-4381.6 -4962)">
    <path id="Path_214" data-name="Path 214" d="M38.916,16.52h2.428a.745.745,0,1,0,.021-1.49H38.936a.745.745,0,0,0-.021,1.49Z" transform="translate(4349.597 4950.334)" fill="#293889"/>
    <path id="Path_215" data-name="Path 215" d="M52.046,16.52H54.47a.745.745,0,0,0,.021-1.49H52.066a.745.745,0,1,0-.021,1.49Z" transform="translate(4341.359 4950.334)" fill="#293889"/>
    <path id="Path_216" data-name="Path 216" d="M38.916,27.05h2.428a.745.745,0,1,0,.021-1.49H38.936a.745.745,0,0,0-.021,1.49Z" transform="translate(4349.597 4943.728)" fill="#293889"/>
    <path id="Path_217" data-name="Path 217" d="M52.046,27.05H54.47a.745.745,0,1,0,.021-1.49H52.066a.745.745,0,1,0-.021,1.49Z" transform="translate(4341.359 4943.728)" fill="#293889"/>
    <path id="Path_218" data-name="Path 218" d="M38.916,37.59h2.428a.745.745,0,1,0,.021-1.49H38.936a.745.745,0,0,0-.021,1.49Z" transform="translate(4349.597 4937.114)" fill="#293889"/>
    <path id="Path_219" data-name="Path 219" d="M52.046,37.59H54.47a.745.745,0,1,0,.021-1.49H52.066a.745.745,0,1,0-.021,1.49Z" transform="translate(4341.359 4937.114)" fill="#293889"/>
    <path id="Path_220" data-name="Path 220" d="M38.916,48.12h2.428a.745.745,0,1,0,.021-1.49H38.936a.745.745,0,0,0-.021,1.49Z" transform="translate(4349.597 4930.508)" fill="#293889"/>
    <path id="Path_221" data-name="Path 221" d="M52.046,48.12H54.47a.745.745,0,1,0,.021-1.49H52.066a.745.745,0,1,0-.021,1.49Z" transform="translate(4341.359 4930.508)" fill="#293889"/>
    <path id="Path_222" data-name="Path 222" d="M42.1,57.925a.745.745,0,0,0-.735-.756H38.936a.745.745,0,0,0-.021,1.49h2.428A.745.745,0,0,0,42.1,57.925Z" transform="translate(4349.597 4923.895)" fill="#293889"/>
    <path id="Path_223" data-name="Path 223" d="M52.046,58.66H54.47a.745.745,0,1,0,.021-1.49H52.066a.745.745,0,1,0-.021,1.49Z" transform="translate(4341.359 4923.895)" fill="#293889"/>
    <path id="Path_224" data-name="Path 224" d="M42.017,34.614H39.48V6.745A.745.745,0,0,0,38.735,6H25.627a.745.745,0,0,0-.745.745V34.614H22.345a.745.745,0,0,0-.745.745v2.683a.745.745,0,0,0,.745.745H42.017a.745.745,0,0,0,.745-.745V35.359A.745.745,0,0,0,42.017,34.614ZM26.373,7.49H37.989V34.614H35.37V28.991a.745.745,0,0,0-.745-.745H29.737a.745.745,0,0,0-.745.745v5.622H26.373ZM33.88,29.737v4.877h-3.4V29.737ZM41.272,37.3H23.09V36.1H41.272Z" transform="translate(4360 4956)" fill="#293889"/>
  </g>
</svg>
