<svg xmlns="http://www.w3.org/2000/svg" width="19.978" height="22.363" viewBox="0 0 19.978 22.363">
  <g id="Group_751" data-name="Group 751" transform="translate(-3953.37 -3586.887)">
    <g id="Group_639" data-name="Group 639" transform="translate(3953.467 3587)">
      <path id="Path_210" data-name="Path 210" d="M43.925,21.784a.369.369,0,0,0-.5.071L40.594,25.8,39.333,24.02a.357.357,0,0,0-.571.428l1.57,2.189a.357.357,0,0,0,.571,0l3.117-4.354A.374.374,0,0,0,43.925,21.784Z" transform="translate(-31.498 -17.383)" fill="#293889" stroke="#293889" stroke-width="0.2"/>
      <path id="Path_211" data-name="Path 211" d="M15.208,29.414c-1.071-.952-1.451-1.309-1.642-1.475a3.437,3.437,0,0,0-.5-.428,1.523,1.523,0,0,0-1.166-.452c-.238-1.5-.928-6.019-1.142-6.662a.979.979,0,0,0-1.047-.714A1.117,1.117,0,0,0,8.737,20.8c-.071.952-.238,5.734-.262,7.137a2.979,2.979,0,0,0,.809,2.569c.048.048.071.1.119.143.523.619,1.713,1.927,2.617,2.784.738.714.738.9.761,1.427v.19c.024.69-.143,2.5-.143,2.522a.457.457,0,0,0,.1.285.382.382,0,0,0,.262.119h0l3.64-.1a.366.366,0,0,0,.357-.357c0-.571,0-1.118.024-1.642C17.064,33.2,17.111,31.1,15.208,29.414Zm1.071,7.756-2.9.071c.024-.381.071-.952.1-1.475l2.831-.238v.333C16.3,36.266,16.278,36.718,16.278,37.17Zm.048-2.355-2.831.238v-.19c0-.69-.048-1.071-.975-1.927-.9-.856-2.07-2.141-2.569-2.736a.631.631,0,0,1-.119-.143,2.352,2.352,0,0,1-.642-2.094c.048-1.665.19-6.21.262-7.09a.448.448,0,0,1,.357-.452h.024a.256.256,0,0,1,.262.214c.167.571.88,5.044,1.166,6.9a1.342,1.342,0,0,0,.1,1.19c.5.975,1.332,2.332,1.38,2.4a.363.363,0,1,0,.619-.381c0-.024-.88-1.4-1.332-2.332a.7.7,0,0,1-.1-.571l.024-.024h0c.071-.048.309-.048.69.285.285.238.285.238.476.4s.595.523,1.665,1.475C16.159,31.2,16.326,32.769,16.326,34.815Z" transform="translate(-8.467 -15.829)" fill="#293889" stroke="#293889" stroke-width="0.2"/>
      <path id="Path_212" data-name="Path 212" d="M64.193,27.839c-.048-1.38-.19-6.162-.262-7.137a1.179,1.179,0,0,0-.975-1.118.979.979,0,0,0-1.047.714c-.19.642-.9,5.163-1.142,6.662a1.62,1.62,0,0,0-1.166.452,3.437,3.437,0,0,0-.5.428c-.19.167-.595.523-1.642,1.475C55.557,31,55.6,33.1,55.652,35.762c0,.523.024,1.071.024,1.642a.35.35,0,0,0,.357.357l3.64.1h0a.368.368,0,0,0,.357-.4c0-.024-.143-1.832-.143-2.522v-.19c0-.523,0-.714.761-1.427.9-.88,2.117-2.189,2.617-2.784.048-.048.071-.1.119-.143A2.97,2.97,0,0,0,64.193,27.839Zm-7.827,9.255c0-.452,0-.88-.024-1.309v-.333l2.831.238c.024.5.071,1.094.1,1.475Zm6.471-7.137a.631.631,0,0,0-.119.143c-.5.595-1.689,1.88-2.569,2.736-.9.88-.952,1.237-.975,1.927v.19l-2.831-.238c-.024-2.046.167-3.592,1.57-4.877,1.071-.952,1.475-1.309,1.665-1.475s.19-.167.476-.4c.381-.309.619-.333.69-.285h0a.023.023,0,0,0,.024.024.7.7,0,0,1-.1.571C60.2,29.219,59.34,30.6,59.34,30.6a.363.363,0,0,0,.619.381c.048-.048.88-1.427,1.38-2.4a1.345,1.345,0,0,0,.1-1.19c.285-1.856,1-6.328,1.166-6.9a.279.279,0,0,1,.285-.214.448.448,0,0,1,.357.452c.071.88.214,5.424.262,7.09A2.619,2.619,0,0,1,62.837,29.956Z" transform="translate(-44.415 -15.753)" fill="#293889" stroke="#293889" stroke-width="0.2"/>
      <path id="Path_213" data-name="Path 213" d="M37.892,6.712a.358.358,0,0,0-.238-.333,14.849,14.849,0,0,1-5.02-2.807.393.393,0,0,0-.452,0,14.939,14.939,0,0,1-5.044,2.807.358.358,0,0,0-.238.333c0,3.688.833,6.328,2.451,7.827a4.5,4.5,0,0,0,2.974,1.237h.1a4.491,4.491,0,0,0,3.045-1.237C37.083,13.064,37.892,10.423,37.892,6.712Zm-5.448,8.375H32.4a3.743,3.743,0,0,1-2.569-1.071c-1.4-1.309-2.165-3.759-2.213-7.042A15.2,15.2,0,0,0,32.42,4.309a15.765,15.765,0,0,0,4.758,2.665c-.024,3.307-.785,5.734-2.189,7.042A3.67,3.67,0,0,1,32.443,15.086Z" transform="translate(-22.515 -3.5)" fill="#293889" stroke="#293889" stroke-width="0.2"/>
    </g>
  </g>
</svg>
